{
  "accessors": [
    {
      "name": "Obj3d66_1146673_29_280_1_0_positions",
      "componentType": 5126,
      "count": 1538,
      "min": [
        -92.16850280761719,
        2.7662999629974365,
        -47.51499938964844
      ],
      "max": [
        100.0188980102539,
        81.43090057373047,
        45.61600112915039
      ],
      "type": "VEC3",
      "bufferView": 0,
      "byteOffset": 0
    },
    {
      "name": "Obj3d66_1146673_29_280_1_0_normals",
      "componentType": 5126,
      "count": 1538,
      "min": [
        -0.9999979734420776,
        -1,
        -1
      ],
      "max": [
        1,
        1,
        1
      ],
      "type": "VEC3",
      "bufferView": 1,
      "byteOffset": 0
    },
    {
      "name": "Obj3d66_1146673_29_280_1_0_texcoords",
      "componentType": 5126,
      "count": 1538,
      "min": [
        0.021900000050663948,
        0.0406000018119812
      ],
      "max": [
        0.9781000018119812,
        0.9781000018119812
      ],
      "type": "VEC2",
      "bufferView": 2,
      "byteOffset": 0
    },
    {
      "name": "Obj3d66_1146673_29_280_1_0_indices",
      "componentType": 5123,
      "count": 4254,
      "min": [
        0
      ],
      "max": [
        1537
      ],
      "type": "SCALAR",
      "bufferView": 3,
      "byteOffset": 0
    }
  ],
  "asset": {
    "generator": "obj2gltf",
    "version": "2.0"
  },
  "buffers": [
    {
      "name": "mpv",
      "byteLength": 57724,
      "uri": "data:application/octet-stream;base64,"
    }
  ],
  "bufferViews": [
    {
      "name": "bufferView_0",
      "buffer": 0,
      "byteLength": 18456,
      "byteOffset": 0,
      "byteStride": 12,
      "target": 34962
    },
    {
      "name": "bufferView_1",
      "buffer": 0,
      "byteLength": 18456,
      "byteOffset": 18456,
      "byteStride": 12,
      "target": 34962
    },
    {
      "name": "bufferView_2",
      "buffer": 0,
      "byteLength": 12304,
      "byteOffset": 36912,
      "byteStride": 8,
      "target": 34962
    },
    {
      "name": "bufferView_3",
      "buffer": 0,
      "byteLength": 8508,
      "byteOffset": 49216,
      "target": 34963
    }
  ],
  "materials": [
    {
      "name": "_MPVMat3d66_1146673_3_9034",
      "pbrMetallicRoughness": {
        "baseColorFactor": [
          0.9216,
          0.9216,
          0.9216,
          1
        ],
        "metallicFactor": 0,
        "roughnessFactor": 0.99
      },
      "emissiveFactor": [
        0,
        0,
        0
      ],
      "alphaMode": "OPAQUE",
      "doubleSided": false
    }
  ],
  "meshes": [
    {
      "name": "Obj3d66_1146673_29_280_1",
      "primitives": [
        {
          "attributes": {
            "POSITION": 0,
            "NORMAL": 1,
            "TEXCOORD_0": 2
          },
          "indices": 3,
          "material": 0,
          "mode": 4
        }
      ]
    }
  ],
  "nodes": [
    {
      "name": "Obj3d66_1146673_29_280",
      "mesh": 0
    }
  ],
  "scene": 0,
  "scenes": [
    {
      "nodes": [
        0
      ]
    }
  ]
}
