{
  "accessors": [
    {
      "name": "man2_1_0_positions",
      "componentType": 5126,
      "count": 1435,
      "min": [
        -43.41960144042969,
        0.20600000023841858,
        -31.670000076293945
      ],
      "max": [
        42.97919845581055,
        180.15040588378906,
        29.233200073242188
      ],
      "type": "VEC3",
      "bufferView": 0,
      "byteOffset": 0
    },
    {
      "name": "man2_1_0_normals",
      "componentType": 5126,
      "count": 1435,
      "min": [
        -0.9983323812484741,
        -0.9998915791511536,
        -0.9996710419654846
      ],
      "max": [
        0.9985364675521851,
        0.9998825788497925,
        0.9999226927757263
      ],
      "type": "VEC3",
      "bufferView": 1,
      "byteOffset": 0
    },
    {
      "name": "man2_1_0_texcoords",
      "componentType": 5126,
      "count": 1435,
      "min": [
        0.004100000020116568,
        0.0035000001080334187
      ],
      "max": [
        0.9959999918937683,
        0.9807000160217285
      ],
      "type": "VEC2",
      "bufferView": 2,
      "byteOffset": 0
    },
    {
      "name": "man2_1_0_indices",
      "componentType": 5123,
      "count": 6540,
      "min": [
        0
      ],
      "max": [
        1434
      ],
      "type": "SCALAR",
      "bufferView": 3,
      "byteOffset": 0
    }
  ],
  "asset": {
    "generator": "obj2gltf",
    "version": "2.0"
  },
  "buffers": [
    {
      "name": "pedestrian",
      "byteLength": 59000,
      "uri": "data:application/octet-stream;base64,"
    }
  ],
  "bufferViews": [
    {
      "name": "bufferView_0",
      "buffer": 0,
      "byteLength": 17220,
      "byteOffset": 0,
      "byteStride": 12,
      "target": 34962
    },
    {
      "name": "bufferView_1",
      "buffer": 0,
      "byteLength": 17220,
      "byteOffset": 17220,
      "byteStride": 12,
      "target": 34962
    },
    {
      "name": "bufferView_2",
      "buffer": 0,
      "byteLength": 11480,
      "byteOffset": 34440,
      "byteStride": 8,
      "target": 34962
    },
    {
      "name": "bufferView_3",
      "buffer": 0,
      "byteLength": 13080,
      "byteOffset": 45920,
      "target": 34963
    }
  ],
  "materials": [
    {
      "name": "Mat3d66_629919_386_399",
      "pbrMetallicRoughness": {
        "baseColorFactor": [
          1,
          1,
          1,
          1
        ],
        "metallicFactor": 0,
        "roughnessFactor": 0.99
      },
      "emissiveFactor": [
        0,
        0,
        0
      ],
      "alphaMode": "OPAQUE",
      "doubleSided": false
    }
  ],
  "meshes": [
    {
      "name": "man2_1",
      "primitives": [
        {
          "attributes": {
            "POSITION": 0,
            "NORMAL": 1,
            "TEXCOORD_0": 2
          },
          "indices": 3,
          "material": 0,
          "mode": 4
        }
      ]
    }
  ],
  "nodes": [
    {
      "name": "man2",
      "mesh": 0
    }
  ],
  "scene": 0,
  "scenes": [
    {
      "nodes": [
        0
      ]
    }
  ]
}
