{
  "accessors": [
    {
      "name": "Obj3d66_1146673_146_968_1_0_positions",
      "componentType": 5126,
      "count": 1428,
      "min": [
        -143.23179626464844,
        3.538300037384033,
        -32.42660140991211
      ],
      "max": [
        58.4286003112793,
        73.18419647216797,
        58.40890121459961
      ],
      "type": "VEC3",
      "bufferView": 0,
      "byteOffset": 0
    },
    {
      "name": "Obj3d66_1146673_146_968_1_0_normals",
      "componentType": 5126,
      "count": 1428,
      "min": [
        -0.999824047088623,
        -0.9996027946472168,
        -0.9999992251396179
      ],
      "max": [
        1,
        0.9999999403953552,
        1
      ],
      "type": "VEC3",
      "bufferView": 1,
      "byteOffset": 0
    },
    {
      "name": "Obj3d66_1146673_146_968_1_0_texcoords",
      "componentType": 5126,
      "count": 1428,
      "min": [
        0.021900000050663948,
        0.021900000050663948
      ],
      "max": [
        0.916700005531311,
        0.9781000018119812
      ],
      "type": "VEC2",
      "bufferView": 2,
      "byteOffset": 0
    },
    {
      "name": "Obj3d66_1146673_146_968_1_0_indices",
      "componentType": 5123,
      "count": 3030,
      "min": [
        0
      ],
      "max": [
        1427
      ],
      "type": "SCALAR",
      "bufferView": 3,
      "byteOffset": 0
    }
  ],
  "asset": {
    "generator": "obj2gltf",
    "version": "2.0"
  },
  "buffers": [
    {
      "name": "pika",
      "byteLength": 51756,
      "uri": "data:application/octet-stream;base64,"
    }
  ],
  "bufferViews": [
    {
      "name": "bufferView_0",
      "buffer": 0,
      "byteLength": 17136,
      "byteOffset": 0,
      "byteStride": 12,
      "target": 34962
    },
    {
      "name": "bufferView_1",
      "buffer": 0,
      "byteLength": 17136,
      "byteOffset": 17136,
      "byteStride": 12,
      "target": 34962
    },
    {
      "name": "bufferView_2",
      "buffer": 0,
      "byteLength": 11424,
      "byteOffset": 34272,
      "byteStride": 8,
      "target": 34962
    },
    {
      "name": "bufferView_3",
      "buffer": 0,
      "byteLength": 6060,
      "byteOffset": 45696,
      "target": 34963
    }
  ],
  "materials": [
    {
      "name": "_PIKAMat3d66_1146673_3_9034",
      "pbrMetallicRoughness": {
        "baseColorFactor": [
          0.9608,
          0.9608,
          0.9608,
          1
        ],
        "metallicFactor": 0,
        "roughnessFactor": 0.99
      },
      "emissiveFactor": [
        0,
        0,
        0
      ],
      "alphaMode": "OPAQUE",
      "doubleSided": false
    }
  ],
  "meshes": [
    {
      "name": "Obj3d66_1146673_146_968_1",
      "primitives": [
        {
          "attributes": {
            "POSITION": 0,
            "NORMAL": 1,
            "TEXCOORD_0": 2
          },
          "indices": 3,
          "material": 0,
          "mode": 4
        }
      ]
    }
  ],
  "nodes": [
    {
      "name": "Obj3d66_1146673_146_968",
      "mesh": 0
    }
  ],
  "scene": 0,
  "scenes": [
    {
      "nodes": [
        0
      ]
    }
  ]
}
