{
  "accessors": [
    {
      "name": "CAR001_1_0_positions",
      "componentType": 5126,
      "count": 1455,
      "min": [
        -102.39939880371094,
        3.549299955368042,
        -37.715599060058594
      ],
      "max": [
        76.96099853515625,
        59.81629943847656,
        41.157100677490234
      ],
      "type": "VEC3",
      "bufferView": 0,
      "byteOffset": 0
    },
    {
      "name": "CAR001_1_0_normals",
      "componentType": 5126,
      "count": 1455,
      "min": [
        -1,
        -1,
        -1
      ],
      "max": [
        1,
        1,
        1
      ],
      "type": "VEC3",
      "bufferView": 1,
      "byteOffset": 0
    },
    {
      "name": "CAR001_1_0_texcoords",
      "componentType": 5126,
      "count": 1455,
      "min": [
        0.021900000050663948,
        0.021900000050663948
      ],
      "max": [
        0.9714999794960022,
        0.9781000018119812
      ],
      "type": "VEC2",
      "bufferView": 2,
      "byteOffset": 0
    },
    {
      "name": "CAR001_1_0_indices",
      "componentType": 5123,
      "count": 3756,
      "min": [
        0
      ],
      "max": [
        1454
      ],
      "type": "SCALAR",
      "bufferView": 3,
      "byteOffset": 0
    }
  ],
  "asset": {
    "generator": "obj2gltf",
    "version": "2.0"
  },
  "buffers": [
    {
      "name": "vehicle",
      "byteLength": 54072,
      "uri": "data:application/octet-stream;base64,"
    }
  ],
  "bufferViews": [
    {
      "name": "bufferView_0",
      "buffer": 0,
      "byteLength": 17460,
      "byteOffset": 0,
      "byteStride": 12,
      "target": 34962
    },
    {
      "name": "bufferView_1",
      "buffer": 0,
      "byteLength": 17460,
      "byteOffset": 17460,
      "byteStride": 12,
      "target": 34962
    },
    {
      "name": "bufferView_2",
      "buffer": 0,
      "byteLength": 11640,
      "byteOffset": 34920,
      "byteStride": 8,
      "target": 34962
    },
    {
      "name": "bufferView_3",
      "buffer": 0,
      "byteLength": 7512,
      "byteOffset": 46560,
      "target": 34963
    }
  ],
  "materials": [
    {
      "name": "_CARMat3d66_1146673_3_9034",
      "pbrMetallicRoughness": {
        "baseColorFactor": [
          0.949,
          0.949,
          0.949,
          1
        ],
        "metallicFactor": 0,
        "roughnessFactor": 0.99
      },
      "emissiveFactor": [
        0,
        0,
        0
      ],
      "alphaMode": "OPAQUE",
      "doubleSided": false
    }
  ],
  "meshes": [
    {
      "name": "CAR001_1",
      "primitives": [
        {
          "attributes": {
            "POSITION": 0,
            "NORMAL": 1,
            "TEXCOORD_0": 2
          },
          "indices": 3,
          "material": 0,
          "mode": 4
        }
      ]
    }
  ],
  "nodes": [
    {
      "name": "CAR001",
      "mesh": 0
    }
  ],
  "scene": 0,
  "scenes": [
    {
      "nodes": [
        0
      ]
    }
  ]
}
