{
  "accessors": [
    {
      "name": "object_1-Mesh_0_positions",
      "componentType": 5126,
      "count": 1416,
      "min": [
        -0.4048149883747101,
        2.252774953842163,
        -0.06611300259828568
      ],
      "max": [
        0.3346030116081238,
        2.8984498977661133,
        -0.05611199885606766
      ],
      "type": "VEC3",
      "bufferView": 0,
      "byteOffset": 0
    },
    {
      "name": "object_1-Mesh_0_normals",
      "componentType": 5126,
      "count": 1416,
      "min": [
        -1,
        -1,
        -1
      ],
      "max": [
        1,
        1,
        1
      ],
      "type": "VEC3",
      "bufferView": 1,
      "byteOffset": 0
    },
    {
      "name": "object_1-Mesh_0_indices",
      "componentType": 5123,
      "count": 3498,
      "min": [
        0
      ],
      "max": [
        1415
      ],
      "type": "SCALAR",
      "bufferView": 2,
      "byteOffset": 0
    },
    {
      "name": "object_1-Mesh_1_positions",
      "componentType": 5126,
      "count": 972,
      "min": [
        -0.37749800086021423,
        2.282728910446167,
        -0.06611300259828568
      ],
      "max": [
        0.3072870075702667,
        2.8784499168395996,
        -0.05611199885606766
      ],
      "type": "VEC3",
      "bufferView": 0,
      "byteOffset": 16992
    },
    {
      "name": "object_1-Mesh_1_normals",
      "componentType": 5126,
      "count": 972,
      "min": [
        -1,
        -1,
        -1
      ],
      "max": [
        1,
        1,
        1
      ],
      "type": "VEC3",
      "bufferView": 1,
      "byteOffset": 16992
    },
    {
      "name": "object_1-Mesh_1_indices",
      "componentType": 5123,
      "count": 2082,
      "min": [
        0
      ],
      "max": [
        971
      ],
      "type": "SCALAR",
      "bufferView": 2,
      "byteOffset": 6996
    },
    {
      "name": "object_1-Mesh_2_positions",
      "componentType": 5126,
      "count": 521,
      "min": [
        -0.0784360021352768,
        -0.007457000203430653,
        -0.07821200042963028
      ],
      "max": [
        0.008224000222980976,
        2.6912100315093994,
        0.008448000065982342
      ],
      "type": "VEC3",
      "bufferView": 0,
      "byteOffset": 28656
    },
    {
      "name": "object_1-Mesh_2_normals",
      "componentType": 5126,
      "count": 521,
      "min": [
        -0.9958141446113586,
        -1,
        -0.9958141446113586
      ],
      "max": [
        0.9958141446113586,
        1,
        0.9958141446113586
      ],
      "type": "VEC3",
      "bufferView": 1,
      "byteOffset": 28656
    },
    {
      "name": "object_1-Mesh_2_indices",
      "componentType": 5123,
      "count": 756,
      "min": [
        0
      ],
      "max": [
        520
      ],
      "type": "SCALAR",
      "bufferView": 2,
      "byteOffset": 11160
    }
  ],
  "asset": {
    "generator": "obj2gltf",
    "version": "2.0"
  },
  "buffers": [
    {
      "name": "yield_sign",
      "byteLength": 82488,
      "uri": "data:application/octet-stream;base64,"
    }
  ],
  "bufferViews": [
    {
      "name": "bufferView_0",
      "buffer": 0,
      "byteLength": 34908,
      "byteOffset": 0,
      "byteStride": 12,
      "target": 34962
    },
    {
      "name": "bufferView_1",
      "buffer": 0,
      "byteLength": 34908,
      "byteOffset": 34908,
      "byteStride": 12,
      "target": 34962
    },
    {
      "name": "bufferView_2",
      "buffer": 0,
      "byteLength": 12672,
      "byteOffset": 69816,
      "target": 34963
    }
  ],
  "materials": [
    {
      "name": "Material_1",
      "pbrMetallicRoughness": {
        "baseColorFactor": [
          1,
          1,
          0.9961,
          1
        ],
        "metallicFactor": 0,
        "roughnessFactor": 0.950980392
      },
      "emissiveFactor": [
        0,
        0,
        0
      ],
      "alphaMode": "OPAQUE",
      "doubleSided": false
    },
    {
      "name": "Material_2",
      "pbrMetallicRoughness": {
        "baseColorFactor": [
          0.9843,
          0.0078,
          0.0275,
          1
        ],
        "metallicFactor": 0,
        "roughnessFactor": 0.9235294119999999
      },
      "emissiveFactor": [
        0,
        0,
        0
      ],
      "alphaMode": "OPAQUE",
      "doubleSided": false
    },
    {
      "name": "Material_3",
      "pbrMetallicRoughness": {
        "baseColorFactor": [
          0.298,
          0.298,
          0.298,
          1
        ],
        "metallicFactor": 0,
        "roughnessFactor": 0.919607843
      },
      "emissiveFactor": [
        0,
        0,
        0
      ],
      "alphaMode": "OPAQUE",
      "doubleSided": false
    }
  ],
  "meshes": [
    {
      "name": "object_1-Mesh",
      "primitives": [
        {
          "attributes": {
            "POSITION": 0,
            "NORMAL": 1
          },
          "indices": 2,
          "material": 0,
          "mode": 4
        },
        {
          "attributes": {
            "POSITION": 3,
            "NORMAL": 4
          },
          "indices": 5,
          "material": 1,
          "mode": 4
        },
        {
          "attributes": {
            "POSITION": 6,
            "NORMAL": 7
          },
          "indices": 8,
          "material": 2,
          "mode": 4
        }
      ]
    }
  ],
  "nodes": [
    {
      "name": "object_1",
      "mesh": 0
    }
  ],
  "scene": 0,
  "scenes": [
    {
      "nodes": [
        0
      ]
    }
  ]
}
