<svg t="1675220467670" class="icon" viewBox="0 0 1024 1024" version="1.1" xmlns="http://www.w3.org/2000/svg" p-id="7822" width="200" height="200"><path d="M904.533333 85.333333H119.466667a34.133333 34.133333 0 0 0-34.133334 34.133334v785.066666a34.133333 34.133333 0 0 0 34.133334 34.133334h785.066666a34.133333 34.133333 0 0 0 34.133334-34.133334V119.466667a34.133333 34.133333 0 0 0-34.133334-34.133334z m-42.666666 776.533334H162.133333V162.133333h699.733334v699.733334z" fill="#000000" p-id="7823"></path><path d="M328.533333 694.4V776.533333c0 4.693333 3.84 8.533333 8.533334 8.533334h51.2a8.533333 8.533333 0 0 0 8.533333-8.533334v-82.133333a112.64 112.64 0 0 1-68.266667 0z m68.266667-211.2V247.466667a8.533333 8.533333 0 0 0-8.533333-8.533334H337.066667a8.533333 8.533333 0 0 0-8.533334 8.533334v235.733333a112.64 112.64 0 0 1 68.266667 0z" fill="#000000" p-id="7824"></path><path d="M328.533333 694.4a112.64 112.64 0 0 0 68.266667 0 110.933333 110.933333 0 1 0-68.266667 0z m0.085334-123.392l1.109333-1.92v-0.128l1.28-1.92 0.298667-0.512c0.341333-0.554667 0.768-0.981333 1.066666-1.536 0.128-0.085333 0.213333-0.298667 0.341334-0.426667l1.450666-1.706666 2.048-2.005334 1.706667-1.493333a20.48 20.48 0 0 1 1.834667-1.365333l0.512-0.341334c0.554667-0.341333 0.938667-0.768 1.493333-1.066666 0.085333-0.085333 0.341333-0.213333 0.426667-0.341334 0.64-0.426667 1.28-0.725333 2.048-1.152 0.085333-0.085333 0.298667-0.085333 0.426666-0.213333 0.512-0.341333 1.024-0.554667 1.706667-0.853333l0.597333-0.341334 2.133334-0.853333c0.768-0.298667 1.493333-0.512 2.261333-0.725333 0.213333-0.085333 0.426667-0.085333 0.64-0.213334a11.178667 11.178667 0 0 1 1.834667-0.426666c0.213333 0 0.298667-0.128 0.512-0.128 0.768-0.213333 1.578667-0.298667 2.346666-0.426667 0.213333 0 0.341333 0 0.554667-0.085333 0.597333-0.085333 1.28-0.085333 1.92-0.213334h0.597333l2.474667-0.085333c0.853333 0 1.578667 0 2.432 0.085333h0.64c0.682667 0 1.28 0.128 1.962667 0.213334 0.213333 0 0.298667 0 0.512 0.085333 0.768 0.128 1.621333 0.213333 2.346666 0.426667 0.213333 0 0.298667 0.128 0.512 0.128 0.682667 0.085333 1.28 0.298667 1.834667 0.426666 0.213333 0.085333 0.426667 0.085333 0.64 0.213334 0.768 0.213333 1.493333 0.426667 2.261333 0.768 0.725333 0.213333 1.365333 0.512 2.133334 0.853333l0.597333 0.298667a12.714667 12.714667 0 0 1 1.706667 0.853333c0.128 0.085333 0.341333 0.085333 0.426666 0.213333a19.797333 19.797333 0 0 1 2.048 1.152c0.085333 0.128 0.298667 0.213333 0.426667 0.341334a7.552 7.552 0 0 1 1.493333 1.066666c0.213333 0.085333 0.298667 0.213333 0.512 0.341334 0.682667 0.426667 1.28 0.938667 1.834667 1.365333a21.333333 21.333333 0 0 1 1.706667 1.493333l2.048 2.048a21.333333 21.333333 0 0 1 1.450666 1.706667c0.128 0.085333 0.213333 0.298667 0.341334 0.426667 0.426667 0.426667 0.768 0.938667 1.066666 1.450666 0.085333 0.256 0.213333 0.341333 0.341334 0.554667l1.28 1.92s0 0.085333 0.085333 0.085333a38.570667 38.570667 0 0 1 1.066667 37.546667c-0.298667 0.682667-0.768 1.28-1.066667 1.962667 0 0 0 0.085333-0.128 0.085333l-1.28 1.92-0.298667 0.512c-0.341333 0.554667-0.768 0.981333-1.066666 1.536l-0.341334 0.426667-1.450666 1.706666-2.048 2.005334c-0.512 0.512-1.066667 0.938667-1.706667 1.493333a20.48 20.48 0 0 1-1.834667 1.408l-0.512 0.298667c-0.554667 0.341333-0.981333 0.768-1.493333 1.066666-0.128 0.085333-0.341333 0.213333-0.426667 0.341334-0.64 0.426667-1.28 0.725333-2.048 1.152-0.085333 0.085333-0.298667 0.085333-0.426666 0.213333l-1.706667 0.853333-0.597333 0.341334-2.133334 0.853333c-0.768 0.298667-1.536 0.512-2.261333 0.725333-0.213333 0.085333-0.426667 0.085333-0.64 0.213334a11.178667 11.178667 0 0 1-1.834667 0.426666l-0.512 0.085334c-0.768 0.213333-1.621333 0.341333-2.346666 0.426666-0.213333 0-0.298667 0-0.512 0.128-0.682667 0.128-1.28 0.128-1.962667 0.213334h-0.597333l-2.474667 0.085333c-0.853333 0-1.578667 0-2.474667-0.085333h-0.597333a11.733333 11.733333 0 0 1-1.92-0.213334c-0.213333 0-0.341333 0-0.554667-0.085333l-2.346666-0.426667c-0.213333 0-0.341333-0.128-0.512-0.128l-1.834667-0.426666c-0.213333-0.085333-0.426667-0.085333-0.64-0.213334-0.768-0.213333-1.493333-0.426667-2.261333-0.768-0.725333-0.213333-1.365333-0.512-2.133334-0.853333l-0.597333-0.298667a12.714667 12.714667 0 0 1-1.706667-0.853333c-0.128-0.128-0.341333-0.128-0.426666-0.213333a19.797333 19.797333 0 0 1-2.048-1.152c-0.085333-0.128-0.341333-0.256-0.426667-0.341334a7.552 7.552 0 0 1-1.493333-1.066666l-0.512-0.298667c-0.682667-0.426667-1.28-0.981333-1.834667-1.408a21.333333 21.333333 0 0 1-1.706667-1.493333l-2.048-2.005334a21.333333 21.333333 0 0 1-1.450666-1.706666c-0.128-0.128-0.213333-0.341333-0.341334-0.426667a7.552 7.552 0 0 1-1.066666-1.536l-0.298667-0.512-1.28-1.92v-0.128c-0.426667-0.597333-0.768-1.28-1.109333-1.92a38.570667 38.570667 0 0 1 0-35.626667zM627.2 540.8V776.533333c0 4.693333 3.84 8.533333 8.533333 8.533334h51.2a8.533333 8.533333 0 0 0 8.533334-8.533334v-235.733333a112.64 112.64 0 0 1-68.266667 0z m68.266667-211.2V247.466667a8.533333 8.533333 0 0 0-8.533334-8.533334h-51.2a8.533333 8.533333 0 0 0-8.533333 8.533334v82.133333a112.64 112.64 0 0 1 68.266667 0z" fill="#000000" p-id="7825"></path><path d="M627.2 540.8a112.64 112.64 0 0 0 68.266667 0 110.933333 110.933333 0 1 0-68.266667 0z m0.128-123.434667l1.024-1.877333v-0.128l1.28-1.92 0.341333-0.512c0.341333-0.554667 0.768-0.981333 1.066667-1.536 0.128-0.085333 0.213333-0.298667 0.341333-0.426667l1.450667-1.706666 2.048-2.005334c0.512-0.512 1.066667-0.938667 1.706667-1.493333a20.48 20.48 0 0 1 1.834666-1.408l0.512-0.298667c0.554667-0.341333 0.981333-0.768 1.493334-1.066666 0.085333-0.085333 0.341333-0.213333 0.426666-0.341334 0.64-0.426667 1.28-0.725333 2.048-1.152 0.085333-0.085333 0.298667-0.085333 0.426667-0.213333l1.706667-0.853333 0.597333-0.341334 2.133333-0.853333c0.768-0.298667 1.493333-0.512 2.261334-0.725333 0.213333-0.085333 0.426667-0.085333 0.64-0.213334a11.178667 11.178667 0 0 1 1.834666-0.426666l0.512-0.085334c0.768-0.213333 1.578667-0.341333 2.346667-0.426666 0.213333 0 0.341333 0 0.554667-0.128 0.597333-0.128 1.28-0.128 1.92-0.213334h0.597333l2.474667-0.085333c0.853333 0 1.578667 0 2.432 0.085333h0.64a11.733333 11.733333 0 0 1 2.474666 0.341334c0.768 0.085333 1.621333 0.213333 2.346667 0.426666l0.512 0.085334 1.834667 0.426666c0.213333 0.085333 0.426667 0.085333 0.64 0.213334 0.768 0.213333 1.493333 0.426667 2.261333 0.768 0.725333 0.213333 1.365333 0.512 2.133333 0.853333l0.597334 0.298667a12.714667 12.714667 0 0 1 1.706666 0.853333c0.128 0.128 0.341333 0.128 0.426667 0.213333a19.797333 19.797333 0 0 1 2.048 1.152c0.085333 0.128 0.298667 0.256 0.426667 0.341334 0.512 0.341333 1.066667 0.64 1.493333 1.066666l0.512 0.298667c0.64 0.426667 1.28 0.981333 1.834667 1.408a21.333333 21.333333 0 0 1 1.706666 1.493333l2.005334 2.005334a21.333333 21.333333 0 0 1 1.536 1.706666l0.298666 0.426667c0.426667 0.426667 0.725333 0.981333 1.066667 1.536l0.341333 0.512 1.28 1.92v0.128c0.426667 0.597333 0.725333 1.28 1.024 1.92a38.570667 38.570667 0 0 1 0 35.626667l-1.024 1.877333v0.128l-1.28 1.92-0.341333 0.512-1.066667 1.536c-0.128 0.085333-0.213333 0.298667-0.341333 0.426667l-1.450667 1.706666-2.048 2.005334-1.706666 1.493333a20.48 20.48 0 0 1-1.834667 1.365333l-0.512 0.341334c-0.512 0.341333-0.938667 0.768-1.493333 1.066666-0.128 0.085333-0.341333 0.213333-0.426667 0.341334-0.64 0.426667-1.28 0.725333-2.048 1.152-0.085333 0.085333-0.298667 0.085333-0.426667 0.213333-0.512 0.341333-1.024 0.554667-1.706666 0.853333l-0.597334 0.341334-2.133333 0.853333c-0.768 0.298667-1.536 0.512-2.261333 0.725333-0.213333 0.085333-0.426667 0.085333-0.64 0.213334a11.178667 11.178667 0 0 1-1.834667 0.426666c-0.213333 0-0.298667 0.128-0.512 0.128-0.768 0.213333-1.621333 0.298667-2.346667 0.426667-0.213333 0-0.298667 0-0.512 0.085333-0.682667 0.085333-1.28 0.085333-1.962666 0.213334h-0.597334l-2.474666 0.085333c-0.853333 0-1.578667 0-2.474667-0.085333h-0.597333c-0.64 0-1.28-0.128-1.92-0.213334-0.213333 0-0.341333 0-0.554667-0.085333-0.768-0.128-1.578667-0.213333-2.346667-0.426667-0.213333 0-0.341333-0.128-0.512-0.128-0.64-0.085333-1.28-0.298667-1.834666-0.426666-0.213333-0.085333-0.426667-0.085333-0.64-0.213334-0.768-0.213333-1.493333-0.426667-2.261334-0.768-0.725333-0.213333-1.365333-0.512-2.133333-0.853333l-0.597333-0.298667a12.714667 12.714667 0 0 1-1.706667-0.853333c-0.128-0.085333-0.341333-0.085333-0.426667-0.213333a19.797333 19.797333 0 0 1-2.048-1.152c-0.085333-0.128-0.341333-0.213333-0.426666-0.341334-0.512-0.341333-1.066667-0.64-1.493334-1.066666-0.213333-0.085333-0.341333-0.213333-0.512-0.341334l-1.834666-1.365333a21.333333 21.333333 0 0 1-1.706667-1.493333l-2.048-2.048a21.333333 21.333333 0 0 1-1.493333-1.706667l-0.298667-0.426667c-0.426667-0.426667-0.725333-0.938667-1.066667-1.450666l-0.341333-0.554667-1.28-1.92v-0.085333a38.570667 38.570667 0 0 1-1.066667-37.546667z" fill="#000000" p-id="7826"></path></svg>
