<?xml version="1.0" standalone="no"?>
<!DOCTYPE svg PUBLIC "-//W3C//DTD SVG 1.1//EN" "http://www.w3.org/Graphics/SVG/1.1/DTD/svg11.dtd">
<svg t="1681974774895" class="icon" viewBox="0 0 1024 1024" version="1.1" xmlns="http://www.w3.org/2000/svg" p-id="1830" xmlns:xlink="http://www.w3.org/1999/xlink" width="128" height="128">
<path d="M4.6 824.4c-9 15.2-4.2 35 11 44.4l211.8 130.4c15.4 9.4 35.4 4.8 44.8-10.6 0-0.2 0.2-0.4 0.2-0.4 134.2-224.4 161-191.8 561.8-1.4 16.2 7.8 35.6 0.8 43.4-15.4 0.2-0.2 0.2-0.6 0.4-0.8l100.8-228.2c7.2-16.2-0.2-35.2-16.2-42.6-44.4-20.8-132.4-62.4-211.8-100.6C255 358 89.2 690.6 4.6 824.4z m1014.8-624.2c9-15.2 4.2-35-11-44.4L796.8 25.6c-15-10-35.2-6.2-45.2 8.8-0.4 0.6-0.8 1.2-1.2 2-134.6 225.2-162.2 191.2-561.2 1.8-16.2-7.8-35.6-0.8-43.4 15.4-0.2 0.2-0.2 0.6-0.4 0.8L44.4 282.6c-7.2 16.2 0.2 35.2 16.2 42.6 44.4 20.8 132.6 62.4 212 100.8 496 240 661.6-90.8 746.8-225.8z" p-id="1831" fill="#0082f6"></path>
</svg>