{
  "accessors": [
    {
      "name": "Box001_1_0_positions",
      "componentType": 5126,
      "count": 170,
      "min": [
        -179.29469299316406,
        9.633399963378906,
        -54.3760986328125
      ],
      "max": [
        200.648193359375,
        111.53630065917969,
        44.0630989074707
      ],
      "type": "VEC3",
      "bufferView": 0,
      "byteOffset": 0
    },
    {
      "name": "Box001_1_0_normals",
      "componentType": 5126,
      "count": 170,
      "min": [
        -0.9999983906745911,
        -1,
        -1
      ],
      "max": [
        1,
        1,
        1
      ],
      "type": "VEC3",
      "bufferView": 1,
      "byteOffset": 0
    },
    {
      "name": "Box001_1_0_texcoords",
      "componentType": 5126,
      "count": 170,
      "min": [
        0.03629999980330467,
        0.05130000039935112
      ],
      "max": [
        0.9580000042915344,
        0.9836999773979187
      ],
      "type": "VEC2",
      "bufferView": 2,
      "byteOffset": 0
    },
    {
      "name": "Box001_1_0_indices",
      "componentType": 5123,
      "count": 276,
      "min": [
        0
      ],
      "max": [
        169
      ],
      "type": "SCALAR",
      "bufferView": 3,
      "byteOffset": 0
    },
    {
      "name": "Box002_1_0_positions",
      "componentType": 5126,
      "count": 32,
      "min": [
        -188.4084014892578,
        78.9271011352539,
        44.02909851074219
      ],
      "max": [
        -164.73370361328125,
        108.49030303955078,
        51.430599212646484
      ],
      "type": "VEC3",
      "bufferView": 0,
      "byteOffset": 2040
    },
    {
      "name": "Box002_1_0_normals",
      "componentType": 5126,
      "count": 32,
      "min": [
        -0.9796546697616577,
        -0.994139552116394,
        -1
      ],
      "max": [
        0.978823721408844,
        0.9617570638656616,
        1
      ],
      "type": "VEC3",
      "bufferView": 1,
      "byteOffset": 2040
    },
    {
      "name": "Box002_1_0_texcoords",
      "componentType": 5126,
      "count": 32,
      "min": [
        0,
        0
      ],
      "max": [
        1,
        1
      ],
      "type": "VEC2",
      "bufferView": 2,
      "byteOffset": 1360
    },
    {
      "name": "Box002_1_0_indices",
      "componentType": 5123,
      "count": 60,
      "min": [
        0
      ],
      "max": [
        31
      ],
      "type": "SCALAR",
      "bufferView": 3,
      "byteOffset": 552
    },
    {
      "name": "Box003_1_0_positions",
      "componentType": 5126,
      "count": 32,
      "min": [
        -188.4084014892578,
        78.9271011352539,
        -61.719398498535156
      ],
      "max": [
        -164.73370361328125,
        108.49030303955078,
        -54.31779861450195
      ],
      "type": "VEC3",
      "bufferView": 0,
      "byteOffset": 2424
    },
    {
      "name": "Box003_1_0_normals",
      "componentType": 5126,
      "count": 32,
      "min": [
        -0.9796546697616577,
        -0.994139552116394,
        -1
      ],
      "max": [
        0.978823721408844,
        0.9617570638656616,
        1
      ],
      "type": "VEC3",
      "bufferView": 1,
      "byteOffset": 2424
    },
    {
      "name": "Box003_1_0_texcoords",
      "componentType": 5126,
      "count": 32,
      "min": [
        0,
        0
      ],
      "max": [
        1,
        1
      ],
      "type": "VEC2",
      "bufferView": 2,
      "byteOffset": 1616
    },
    {
      "name": "Box003_1_0_indices",
      "componentType": 5123,
      "count": 60,
      "min": [
        0
      ],
      "max": [
        31
      ],
      "type": "SCALAR",
      "bufferView": 3,
      "byteOffset": 672
    },
    {
      "name": "Cylinder001_1_0_positions",
      "componentType": 5126,
      "count": 74,
      "min": [
        87.12699890136719,
        2.8427999019622803,
        36.54050064086914
      ],
      "max": [
        120.1978988647461,
        35.41120147705078,
        45.459800720214844
      ],
      "type": "VEC3",
      "bufferView": 0,
      "byteOffset": 2808
    },
    {
      "name": "Cylinder001_1_0_normals",
      "componentType": 5126,
      "count": 74,
      "min": [
        -1,
        -0.984815776348114,
        -1
      ],
      "max": [
        1,
        0.984815776348114,
        1
      ],
      "type": "VEC3",
      "bufferView": 1,
      "byteOffset": 2808
    },
    {
      "name": "Cylinder001_1_0_texcoords",
      "componentType": 5126,
      "count": 74,
      "min": [
        0.1793999969959259,
        0.4740999937057495
      ],
      "max": [
        0.7760000228881836,
        0.9399999976158142
      ],
      "type": "VEC2",
      "bufferView": 2,
      "byteOffset": 1872
    },
    {
      "name": "Cylinder001_1_0_indices",
      "componentType": 5123,
      "count": 216,
      "min": [
        0
      ],
      "max": [
        73
      ],
      "type": "SCALAR",
      "bufferView": 3,
      "byteOffset": 792
    },
    {
      "name": "Cylinder002_1_0_positions",
      "componentType": 5126,
      "count": 74,
      "min": [
        -121.4175033569336,
        2.8427999019622803,
        36.54050064086914
      ],
      "max": [
        -88.34660339355469,
        35.41120147705078,
        45.459800720214844
      ],
      "type": "VEC3",
      "bufferView": 0,
      "byteOffset": 3696
    },
    {
      "name": "Cylinder002_1_0_normals",
      "componentType": 5126,
      "count": 74,
      "min": [
        -1,
        -0.984815776348114,
        -1
      ],
      "max": [
        1,
        0.984815776348114,
        1
      ],
      "type": "VEC3",
      "bufferView": 1,
      "byteOffset": 3696
    },
    {
      "name": "Cylinder002_1_0_texcoords",
      "componentType": 5126,
      "count": 74,
      "min": [
        0.1793999969959259,
        0.4740999937057495
      ],
      "max": [
        0.7760000228881836,
        0.9399999976158142
      ],
      "type": "VEC2",
      "bufferView": 2,
      "byteOffset": 2464
    },
    {
      "name": "Cylinder002_1_0_indices",
      "componentType": 5123,
      "count": 216,
      "min": [
        0
      ],
      "max": [
        73
      ],
      "type": "SCALAR",
      "bufferView": 3,
      "byteOffset": 1224
    },
    {
      "name": "Cylinder003_1_0_positions",
      "componentType": 5126,
      "count": 74,
      "min": [
        -121.4175033569336,
        2.8427999019622803,
        -55.74079895019531
      ],
      "max": [
        -88.34660339355469,
        35.41120147705078,
        -46.8213996887207
      ],
      "type": "VEC3",
      "bufferView": 0,
      "byteOffset": 4584
    },
    {
      "name": "Cylinder003_1_0_normals",
      "componentType": 5126,
      "count": 74,
      "min": [
        -1,
        -0.984815776348114,
        -1
      ],
      "max": [
        1,
        0.984815776348114,
        1
      ],
      "type": "VEC3",
      "bufferView": 1,
      "byteOffset": 4584
    },
    {
      "name": "Cylinder003_1_0_texcoords",
      "componentType": 5126,
      "count": 74,
      "min": [
        0.1793999969959259,
        0.4740999937057495
      ],
      "max": [
        0.7760000228881836,
        0.9399999976158142
      ],
      "type": "VEC2",
      "bufferView": 2,
      "byteOffset": 3056
    },
    {
      "name": "Cylinder003_1_0_indices",
      "componentType": 5123,
      "count": 216,
      "min": [
        0
      ],
      "max": [
        73
      ],
      "type": "SCALAR",
      "bufferView": 3,
      "byteOffset": 1656
    },
    {
      "name": "Cylinder004_1_0_positions",
      "componentType": 5126,
      "count": 74,
      "min": [
        87.12699890136719,
        2.8427999019622803,
        -55.74079895019531
      ],
      "max": [
        120.1978988647461,
        35.41120147705078,
        -46.8213996887207
      ],
      "type": "VEC3",
      "bufferView": 0,
      "byteOffset": 5472
    },
    {
      "name": "Cylinder004_1_0_normals",
      "componentType": 5126,
      "count": 74,
      "min": [
        -1,
        -0.984815776348114,
        -1
      ],
      "max": [
        1,
        0.984815776348114,
        1
      ],
      "type": "VEC3",
      "bufferView": 1,
      "byteOffset": 5472
    },
    {
      "name": "Cylinder004_1_0_texcoords",
      "componentType": 5126,
      "count": 74,
      "min": [
        0.1793999969959259,
        0.4740999937057495
      ],
      "max": [
        0.7760000228881836,
        0.9399999976158142
      ],
      "type": "VEC2",
      "bufferView": 2,
      "byteOffset": 3648
    },
    {
      "name": "Cylinder004_1_0_indices",
      "componentType": 5123,
      "count": 216,
      "min": [
        0
      ],
      "max": [
        73
      ],
      "type": "SCALAR",
      "bufferView": 3,
      "byteOffset": 2088
    }
  ],
  "asset": {
    "generator": "obj2gltf",
    "version": "2.0"
  },
  "buffers": [
    {
      "name": "bus",
      "byteLength": 19480,
      "uri": "data:application/octet-stream;base64,"
    }
  ],
  "bufferViews": [
    {
      "name": "bufferView_0",
      "buffer": 0,
      "byteLength": 6360,
      "byteOffset": 0,
      "byteStride": 12,
      "target": 34962
    },
    {
      "name": "bufferView_1",
      "buffer": 0,
      "byteLength": 6360,
      "byteOffset": 6360,
      "byteStride": 12,
      "target": 34962
    },
    {
      "name": "bufferView_2",
      "buffer": 0,
      "byteLength": 4240,
      "byteOffset": 12720,
      "byteStride": 8,
      "target": 34962
    },
    {
      "name": "bufferView_3",
      "buffer": 0,
      "byteLength": 2520,
      "byteOffset": 16960,
      "target": 34963
    }
  ],
  "materials": [
    {
      "name": "02___Default",
      "pbrMetallicRoughness": {
        "baseColorFactor": [
          0.902,
          0.902,
          0.902,
          1
        ],
        "metallicFactor": 0,
        "roughnessFactor": 0.99
      },
      "emissiveFactor": [
        0,
        0,
        0
      ],
      "alphaMode": "OPAQUE",
      "doubleSided": false
    },
    {
      "name": "03___Default",
      "pbrMetallicRoughness": {
        "baseColorFactor": [
          0.0667,
          0.0667,
          0.0667,
          1
        ],
        "metallicFactor": 0,
        "roughnessFactor": 0.99
      },
      "emissiveFactor": [
        0,
        0,
        0
      ],
      "alphaMode": "OPAQUE",
      "doubleSided": false
    }
  ],
  "meshes": [
    {
      "name": "Box001_1",
      "primitives": [
        {
          "attributes": {
            "POSITION": 0,
            "NORMAL": 1,
            "TEXCOORD_0": 2
          },
          "indices": 3,
          "material": 0,
          "mode": 4
        }
      ]
    },
    {
      "name": "Box002_1",
      "primitives": [
        {
          "attributes": {
            "POSITION": 4,
            "NORMAL": 5,
            "TEXCOORD_0": 6
          },
          "indices": 7,
          "material": 1,
          "mode": 4
        }
      ]
    },
    {
      "name": "Box003_1",
      "primitives": [
        {
          "attributes": {
            "POSITION": 8,
            "NORMAL": 9,
            "TEXCOORD_0": 10
          },
          "indices": 11,
          "material": 1,
          "mode": 4
        }
      ]
    },
    {
      "name": "Cylinder001_1",
      "primitives": [
        {
          "attributes": {
            "POSITION": 12,
            "NORMAL": 13,
            "TEXCOORD_0": 14
          },
          "indices": 15,
          "material": 0,
          "mode": 4
        }
      ]
    },
    {
      "name": "Cylinder002_1",
      "primitives": [
        {
          "attributes": {
            "POSITION": 16,
            "NORMAL": 17,
            "TEXCOORD_0": 18
          },
          "indices": 19,
          "material": 0,
          "mode": 4
        }
      ]
    },
    {
      "name": "Cylinder003_1",
      "primitives": [
        {
          "attributes": {
            "POSITION": 20,
            "NORMAL": 21,
            "TEXCOORD_0": 22
          },
          "indices": 23,
          "material": 0,
          "mode": 4
        }
      ]
    },
    {
      "name": "Cylinder004_1",
      "primitives": [
        {
          "attributes": {
            "POSITION": 24,
            "NORMAL": 25,
            "TEXCOORD_0": 26
          },
          "indices": 27,
          "material": 0,
          "mode": 4
        }
      ]
    }
  ],
  "nodes": [
    {
      "name": "Box001",
      "mesh": 0
    },
    {
      "name": "Box002",
      "mesh": 1
    },
    {
      "name": "Box003",
      "mesh": 2
    },
    {
      "name": "Cylinder001",
      "mesh": 3
    },
    {
      "name": "Cylinder002",
      "mesh": 4
    },
    {
      "name": "Cylinder003",
      "mesh": 5
    },
    {
      "name": "Cylinder004",
      "mesh": 6
    }
  ],
  "scene": 0,
  "scenes": [
    {
      "nodes": [
        0,
        1,
        2,
        3,
        4,
        5,
        6
      ]
    }
  ]
}
