{
  "accessors": [
    {
      "name": "bike_crb08_1_0_positions",
      "componentType": 5126,
      "count": 6251,
      "min": [
        -39.73619842529297,
        0.012799999676644802,
        -13.239999771118164
      ],
      "max": [
        40.02479934692383,
        46.084999084472656,
        13.229100227355957
      ],
      "type": "VEC3",
      "bufferView": 0,
      "byteOffset": 0
    },
    {
      "name": "bike_crb08_1_0_normals",
      "componentType": 5126,
      "count": 6251,
      "min": [
        -0.999984622001648,
        -0.9997215867042542,
        -0.9999909400939941
      ],
      "max": [
        0.999984622001648,
        0.9999955892562866,
        0.9999390840530396
      ],
      "type": "VEC3",
      "bufferView": 1,
      "byteOffset": 0
    },
    {
      "name": "bike_crb08_1_0_texcoords",
      "componentType": 5126,
      "count": 6251,
      "min": [
        0,
        -0.8797000050544739
      ],
      "max": [
        1.5157999992370605,
        1.8924000263214111
      ],
      "type": "VEC2",
      "bufferView": 2,
      "byteOffset": 0
    },
    {
      "name": "bike_crb08_1_0_indices",
      "componentType": 5123,
      "count": 14880,
      "min": [
        0
      ],
      "max": [
        6250
      ],
      "type": "SCALAR",
      "bufferView": 3,
      "byteOffset": 0
    },
    {
      "name": "man_1_0_positions",
      "componentType": 5126,
      "count": 899,
      "min": [
        -18.556800842285156,
        8.378100395202637,
        -15.202400207519531
      ],
      "max": [
        17.959699630737305,
        66.60220336914062,
        15.191499710083008
      ],
      "type": "VEC3",
      "bufferView": 0,
      "byteOffset": 75012
    },
    {
      "name": "man_1_0_normals",
      "componentType": 5126,
      "count": 899,
      "min": [
        -0.9989367723464966,
        -0.9978184700012207,
        -0.9999141693115234
      ],
      "max": [
        0.9999975562095642,
        0.9891913533210754,
        0.9999141693115234
      ],
      "type": "VEC3",
      "bufferView": 1,
      "byteOffset": 75012
    },
    {
      "name": "man_1_0_texcoords",
      "componentType": 5126,
      "count": 899,
      "min": [
        0.016200000420212746,
        0.0008999999845400453
      ],
      "max": [
        0.9968000054359436,
        0.9958999752998352
      ],
      "type": "VEC2",
      "bufferView": 2,
      "byteOffset": 50008
    },
    {
      "name": "man_1_0_indices",
      "componentType": 5123,
      "count": 3810,
      "min": [
        0
      ],
      "max": [
        898
      ],
      "type": "SCALAR",
      "bufferView": 3,
      "byteOffset": 29760
    }
  ],
  "asset": {
    "generator": "obj2gltf",
    "version": "2.0"
  },
  "buffers": [
    {
      "name": "motorcycle",
      "byteLength": 266180,
      "uri": "data:application/octet-stream;base64,"
    }
  ],
  "bufferViews": [
    {
      "name": "bufferView_0",
      "buffer": 0,
      "byteLength": 85800,
      "byteOffset": 0,
      "byteStride": 12,
      "target": 34962
    },
    {
      "name": "bufferView_1",
      "buffer": 0,
      "byteLength": 85800,
      "byteOffset": 85800,
      "byteStride": 12,
      "target": 34962
    },
    {
      "name": "bufferView_2",
      "buffer": 0,
      "byteLength": 57200,
      "byteOffset": 171600,
      "byteStride": 8,
      "target": 34962
    },
    {
      "name": "bufferView_3",
      "buffer": 0,
      "byteLength": 37380,
      "byteOffset": 228800,
      "target": 34963
    }
  ],
  "materials": [
    {
      "name": "bike_cbr_05",
      "pbrMetallicRoughness": {
        "baseColorFactor": [
          1,
          1,
          1,
          1
        ],
        "metallicFactor": 0,
        "roughnessFactor": 0.99
      },
      "emissiveFactor": [
        0,
        0,
        0
      ],
      "alphaMode": "OPAQUE",
      "doubleSided": false
    },
    {
      "name": "biker_t02",
      "pbrMetallicRoughness": {
        "baseColorFactor": [
          1,
          1,
          1,
          1
        ],
        "metallicFactor": 0,
        "roughnessFactor": 0.99
      },
      "emissiveFactor": [
        0,
        0,
        0
      ],
      "alphaMode": "OPAQUE",
      "doubleSided": false
    }
  ],
  "meshes": [
    {
      "name": "bike_crb08_1",
      "primitives": [
        {
          "attributes": {
            "POSITION": 0,
            "NORMAL": 1,
            "TEXCOORD_0": 2
          },
          "indices": 3,
          "material": 0,
          "mode": 4
        }
      ]
    },
    {
      "name": "man_1",
      "primitives": [
        {
          "attributes": {
            "POSITION": 4,
            "NORMAL": 5,
            "TEXCOORD_0": 6
          },
          "indices": 7,
          "material": 1,
          "mode": 4
        }
      ]
    }
  ],
  "nodes": [
    {
      "name": "bike_crb08",
      "mesh": 0
    },
    {
      "name": "man",
      "mesh": 1
    }
  ],
  "scene": 0,
  "scenes": [
    {
      "nodes": [
        0,
        1
      ]
    }
  ]
}
