{
  "accessors": [
    {
      "name": "立方体.1-Mesh_0_positions",
      "componentType": 5126,
      "count": 1861,
      "min": [
        -84.6011734008789,
        2.7749810218811035,
        -23.65125274658203
      ],
      "max": [
        82.68489837646484,
        495.64501953125,
        9.917144775390625
      ],
      "type": "VEC3",
      "bufferView": 0,
      "byteOffset": 0
    },
    {
      "name": "立方体.1-Mesh_0_normals",
      "componentType": 5126,
      "count": 1861,
      "min": [
        -1,
        -1,
        -1
      ],
      "max": [
        1,
        1,
        1
      ],
      "type": "VEC3",
      "bufferView": 1,
      "byteOffset": 0
    },
    {
      "name": "立方体.1-Mesh_0_texcoords",
      "componentType": 5126,
      "count": 1861,
      "min": [
        0,
        0
      ],
      "max": [
        1,
        1
      ],
      "type": "VEC2",
      "bufferView": 2,
      "byteOffset": 0
    },
    {
      "name": "立方体.1-Mesh_0_indices",
      "componentType": 5123,
      "count": 5208,
      "min": [
        0
      ],
      "max": [
        1860
      ],
      "type": "SCALAR",
      "bufferView": 3,
      "byteOffset": 0
    },
    {
      "name": "立方体.1-Mesh_1_positions",
      "componentType": 5126,
      "count": 6,
      "min": [
        12.445852279663086,
        394.75457763671875,
        -23.62137222290039
      ],
      "max": [
        19.464757919311523,
        394.75457763671875,
        -17.701488494873047
      ],
      "type": "VEC3",
      "bufferView": 0,
      "byteOffset": 22332
    },
    {
      "name": "立方体.1-Mesh_1_normals",
      "componentType": 5126,
      "count": 6,
      "min": [
        0,
        -1,
        0
      ],
      "max": [
        0,
        -1,
        0
      ],
      "type": "VEC3",
      "bufferView": 1,
      "byteOffset": 22332
    },
    {
      "name": "立方体.1-Mesh_1_texcoords",
      "componentType": 5126,
      "count": 6,
      "min": [
        0.25,
        0
      ],
      "max": [
        0.75,
        1
      ],
      "type": "VEC2",
      "bufferView": 2,
      "byteOffset": 14888
    },
    {
      "name": "立方体.1-Mesh_1_indices",
      "componentType": 5123,
      "count": 12,
      "min": [
        0
      ],
      "max": [
        5
      ],
      "type": "SCALAR",
      "bufferView": 3,
      "byteOffset": 10416
    },
    {
      "name": "立方体.1-Mesh_2_positions",
      "componentType": 5126,
      "count": 98,
      "min": [
        -71.34375,
        341.6163635253906,
        -20.69291114807129
      ],
      "max": [
        69.42747497558594,
        482.3876037597656,
        -10.528731346130371
      ],
      "type": "VEC3",
      "bufferView": 0,
      "byteOffset": 22404
    },
    {
      "name": "立方体.1-Mesh_2_normals",
      "componentType": 5126,
      "count": 98,
      "min": [
        -0.01652006432414055,
        -0.0165200624614954,
        -1
      ],
      "max": [
        0.01652006432414055,
        0.016520068049430847,
        1
      ],
      "type": "VEC3",
      "bufferView": 1,
      "byteOffset": 22404
    },
    {
      "name": "立方体.1-Mesh_2_texcoords",
      "componentType": 5126,
      "count": 98,
      "min": [
        0,
        0
      ],
      "max": [
        1,
        1
      ],
      "type": "VEC2",
      "bufferView": 2,
      "byteOffset": 14936
    },
    {
      "name": "立方体.1-Mesh_2_indices",
      "componentType": 5123,
      "count": 240,
      "min": [
        0
      ],
      "max": [
        97
      ],
      "type": "SCALAR",
      "bufferView": 3,
      "byteOffset": 10440
    }
  ],
  "asset": {
    "generator": "obj2gltf",
    "version": "2.0"
  },
  "buffers": [
    {
      "name": "stop_sign",
      "byteLength": 73800,
      "uri": "data:application/octet-stream;base64,"
    }
  ],
  "bufferViews": [
    {
      "name": "bufferView_0",
      "buffer": 0,
      "byteLength": 23580,
      "byteOffset": 0,
      "byteStride": 12,
      "target": 34962
    },
    {
      "name": "bufferView_1",
      "buffer": 0,
      "byteLength": 23580,
      "byteOffset": 23580,
      "byteStride": 12,
      "target": 34962
    },
    {
      "name": "bufferView_2",
      "buffer": 0,
      "byteLength": 15720,
      "byteOffset": 47160,
      "byteStride": 8,
      "target": 34962
    },
    {
      "name": "bufferView_3",
      "buffer": 0,
      "byteLength": 10920,
      "byteOffset": 62880,
      "target": 34963
    }
  ],
  "materials": [
    {
      "name": "default",
      "pbrMetallicRoughness": {
        "baseColorFactor": [
          1,
          1,
          1,
          1
        ],
        "metallicFactor": 0,
        "roughnessFactor": 0.95
      },
      "emissiveFactor": [
        0,
        0,
        0
      ],
      "alphaMode": "OPAQUE",
      "doubleSided": false
    },
    {
      "name": "Obj_1",
      "pbrMetallicRoughness": {
        "baseColorFactor": [
          1,
          1,
          1,
          1
        ],
        "metallicFactor": 0,
        "roughnessFactor": 0.912
      },
      "emissiveFactor": [
        0,
        0,
        0
      ],
      "alphaMode": "OPAQUE",
      "doubleSided": false
    },
    {
      "name": "材质.3",
      "pbrMetallicRoughness": {
        "baseColorFactor": [
          0.97087377309799,
          0.09708737581968,
          0.31553396582603,
          1
        ],
        "metallicFactor": 0,
        "roughnessFactor": 0.906
      },
      "emissiveFactor": [
        0,
        0,
        0
      ],
      "alphaMode": "OPAQUE",
      "doubleSided": false
    }
  ],
  "meshes": [
    {
      "name": "立方体.1-Mesh",
      "primitives": [
        {
          "attributes": {
            "POSITION": 0,
            "NORMAL": 1,
            "TEXCOORD_0": 2
          },
          "indices": 3,
          "material": 0,
          "mode": 4
        },
        {
          "attributes": {
            "POSITION": 4,
            "NORMAL": 5,
            "TEXCOORD_0": 6
          },
          "indices": 7,
          "material": 1,
          "mode": 4
        },
        {
          "attributes": {
            "POSITION": 8,
            "NORMAL": 9,
            "TEXCOORD_0": 10
          },
          "indices": 11,
          "material": 2,
          "mode": 4
        }
      ]
    }
  ],
  "nodes": [
    {
      "name": "立方体.1",
      "mesh": 0
    }
  ],
  "scene": 0,
  "scenes": [
    {
      "nodes": [
        0
      ]
    }
  ]
}
