{
  "accessors": [
    {
      "name": "Obj3d66_1146673_76_236_1_0_positions",
      "componentType": 5126,
      "count": 1739,
      "min": [
        -116.53679656982422,
        3.689199924468994,
        -49.986698150634766
      ],
      "max": [
        120.09600067138672,
        113.88310241699219,
        39.85150146484375
      ],
      "type": "VEC3",
      "bufferView": 0,
      "byteOffset": 0
    },
    {
      "name": "Obj3d66_1146673_76_236_1_0_normals",
      "componentType": 5126,
      "count": 1739,
      "min": [
        -1,
        -1,
        -1
      ],
      "max": [
        1,
        1,
        1
      ],
      "type": "VEC3",
      "bufferView": 1,
      "byteOffset": 0
    },
    {
      "name": "Obj3d66_1146673_76_236_1_0_texcoords",
      "componentType": 5126,
      "count": 1739,
      "min": [
        0.021900000050663948,
        0.0340999998152256
      ],
      "max": [
        0.9781000018119812,
        0.9781000018119812
      ],
      "type": "VEC2",
      "bufferView": 2,
      "byteOffset": 0
    },
    {
      "name": "Obj3d66_1146673_76_236_1_0_indices",
      "componentType": 5123,
      "count": 3420,
      "min": [
        0
      ],
      "max": [
        1738
      ],
      "type": "SCALAR",
      "bufferView": 3,
      "byteOffset": 0
    }
  ],
  "asset": {
    "generator": "obj2gltf",
    "version": "2.0"
  },
  "buffers": [
    {
      "name": "truck",
      "byteLength": 62488,
      "uri": "data:application/octet-stream;base64,"
    }
  ],
  "bufferViews": [
    {
      "name": "bufferView_0",
      "buffer": 0,
      "byteLength": 20868,
      "byteOffset": 0,
      "byteStride": 12,
      "target": 34962
    },
    {
      "name": "bufferView_1",
      "buffer": 0,
      "byteLength": 20868,
      "byteOffset": 20868,
      "byteStride": 12,
      "target": 34962
    },
    {
      "name": "bufferView_2",
      "buffer": 0,
      "byteLength": 13912,
      "byteOffset": 41736,
      "byteStride": 8,
      "target": 34962
    },
    {
      "name": "bufferView_3",
      "buffer": 0,
      "byteLength": 6840,
      "byteOffset": 55648,
      "target": 34963
    }
  ],
  "materials": [
    {
      "name": "_truckMat3d66_1146673_3_9034",
      "pbrMetallicRoughness": {
        "baseColorFactor": [
          0.9804,
          0.9804,
          0.9804,
          1
        ],
        "metallicFactor": 0,
        "roughnessFactor": 0.99
      },
      "emissiveFactor": [
        0,
        0,
        0
      ],
      "alphaMode": "OPAQUE",
      "doubleSided": false
    }
  ],
  "meshes": [
    {
      "name": "Obj3d66_1146673_76_236_1",
      "primitives": [
        {
          "attributes": {
            "POSITION": 0,
            "NORMAL": 1,
            "TEXCOORD_0": 2
          },
          "indices": 3,
          "material": 0,
          "mode": 4
        }
      ]
    }
  ],
  "nodes": [
    {
      "name": "Obj3d66_1146673_76_236",
      "mesh": 0
    }
  ],
  "scene": 0,
  "scenes": [
    {
      "nodes": [
        0
      ]
    }
  ]
}
